<?xml version="1.0" encoding="utf-8"?>
<!-- Generator: Adobe Illustrator 19.2.0, SVG Export Plug-In . SVG Version: 6.00 Build 0)  -->
<svg version="1.1"
	 id="svg2" inkscape:version="0.91 r13725" sodipodi:docname="logo-white.svg" xmlns:cc="http://creativecommons.org/ns#" xmlns:dc="http://purl.org/dc/elements/1.1/" xmlns:inkscape="http://www.inkscape.org/namespaces/inkscape" xmlns:rdf="http://www.w3.org/1999/02/22-rdf-syntax-ns#" xmlns:sodipodi="http://sodipodi.sourceforge.net/DTD/sodipodi-0.dtd" xmlns:svg="http://www.w3.org/2000/svg"
	 xmlns="http://www.w3.org/2000/svg" xmlns:xlink="http://www.w3.org/1999/xlink" x="0px" y="0px" viewBox="0 0 368.9 97.9"
	 style="enable-background:new 0 0 368.9 97.9;" xml:space="preserve">
<style type="text/css">
	.st0{fill:#FFFFFF;}
	.st1{font-family:'HelveticaNeueCyr-Bold';}
	.st2{font-size:42.019px;}
</style>
<sodipodi:namedview  bordercolor="#666666" borderopacity="1" fit-margin-bottom="0" fit-margin-left="0" fit-margin-right="0" fit-margin-top="0" gridtolerance="10" guidetolerance="10" id="namedview4" inkscape:current-layer="g12" inkscape:cx="177.22569" inkscape:cy="163.53734" inkscape:pageopacity="0" inkscape:pageshadow="2" inkscape:window-height="1028" inkscape:window-maximized="1" inkscape:window-width="1920" inkscape:window-x="0" inkscape:window-y="24" inkscape:zoom="1.907168" objecttolerance="10" pagecolor="#ffffff" showgrid="false">
	</sodipodi:namedview>
<g>
	<path class="st0" d="M19,10.4C20.3,8.1,21.8,6,23.4,4V3.1H0v91.6h23.4v-7.3H8.6V10.4H19z"/>
	<path class="st0" d="M98.3,48.9c0,13.3-3.4,23.7-10.1,31.2c-6.7,7.5-16,11.2-27.8,11.2c-7.3,0-13.8-1.7-19.5-5.2
		c-5.7-3.4-10.1-8.4-13.1-14.8c-3.1-6.4-4.6-13.9-4.6-22.5c0-13.3,3.3-23.7,10-31.2C39.8,10.3,49,6.6,60.9,6.6
		c11.4,0,20.5,3.8,27.3,11.4C94.9,25.6,98.3,35.9,98.3,48.9z M35.9,48.9c0,10.5,2.1,18.4,6.3,23.9c4.2,5.5,10.3,8.2,18.4,8.2
		c8.1,0,14.3-2.7,18.5-8.2c4.2-5.4,6.3-13.4,6.3-23.9c0-10.4-2.1-18.3-6.3-23.7c-4.2-5.4-10.4-8.1-18.6-8.1c-8.1,0-14.2,2.7-18.4,8
		C38,30.4,35.9,38.3,35.9,48.9z"/>
	<path class="st0" d="M97.9,3.1v0.4c1.8,2.1,3.5,4.4,4.9,6.8h9.9v77.1H97.9v7.3h23.4V3.1H97.9z"/>
</g>
<g>
	<text transform="matrix(1 0 0 1 133 62.3212)" class="st0 st1 st2">openbankIT</text>
</g>
</svg>
