<?xml version="1.0" encoding="utf-8"?>
<!-- Generator: Adobe Illustrator 19.2.0, SVG Export Plug-In . SVG Version: 6.00 Build 0)  -->
<svg version="1.1"
	 id="svg2" inkscape:version="0.91 r13725" sodipodi:docname="logo.svg" xmlns:cc="http://creativecommons.org/ns#" xmlns:dc="http://purl.org/dc/elements/1.1/" xmlns:inkscape="http://www.inkscape.org/namespaces/inkscape" xmlns:rdf="http://www.w3.org/1999/02/22-rdf-syntax-ns#" xmlns:sodipodi="http://sodipodi.sourceforge.net/DTD/sodipodi-0.dtd" xmlns:svg="http://www.w3.org/2000/svg"
	 xmlns="http://www.w3.org/2000/svg" xmlns:xlink="http://www.w3.org/1999/xlink" x="0px" y="0px" viewBox="0 0 260.2 149.2"
	 style="enable-background:new 0 0 260.2 149.2;" xml:space="preserve">
<style type="text/css">
	.st0{fill:#1D1D1B;}
	.st1{font-family:'HelveticaNeueCyr-Bold';}
	.st2{font-size:37.5624px;}
</style>
<sodipodi:namedview  bordercolor="#666666" borderopacity="1" fit-margin-bottom="0" fit-margin-left="0" fit-margin-right="0" fit-margin-top="0" gridtolerance="10" guidetolerance="10" id="namedview4" inkscape:current-layer="g12" inkscape:cx="48.55228" inkscape:cy="109.38369" inkscape:pageopacity="0" inkscape:pageshadow="2" inkscape:window-height="1028" inkscape:window-maximized="1" inkscape:window-width="1920" inkscape:window-x="0" inkscape:window-y="24" inkscape:zoom="1.907168" objecttolerance="10" pagecolor="#ffffff" showgrid="false">
	</sodipodi:namedview>
<g>
	<path class="st0" d="M84.7,7.7c1.4-2.4,2.9-4.7,4.7-6.8V0H64.5v97.3h24.9v-7.7H73.7V7.7H84.7z"/>
	<path class="st0" d="M168.8,48.6c0,14.2-3.6,25.2-10.7,33.2c-7.1,8-17,11.9-29.6,11.9c-7.8,0-14.7-1.8-20.7-5.5
		c-6-3.6-10.7-8.9-13.9-15.7C90.7,65.7,89,57.7,89,48.6c0-14.2,3.5-25.2,10.6-33.1c7.1-7.9,16.9-11.8,29.5-11.8
		c12.1,0,21.8,4,29,12.1C165.2,23.8,168.8,34.8,168.8,48.6z M102.7,48.6c0,11.1,2.2,19.5,6.7,25.4c4.4,5.8,11,8.7,19.6,8.7
		c8.6,0,15.1-2.9,19.6-8.7c4.5-5.8,6.7-14.2,6.7-25.4c0-11-2.2-19.4-6.7-25.2c-4.5-5.7-11.1-8.6-19.8-8.6c-8.6,0-15.1,2.8-19.5,8.5
		C104.8,28.9,102.7,37.4,102.7,48.6z"/>
	<path class="st0" d="M168.4,0v0.4c1.9,2.3,3.7,4.7,5.2,7.2h10.5v81.9h-15.7v7.7h24.9V0H168.4z"/>
</g>
<g>
	<text transform="matrix(1 0 0 1 24.0685 141.3822)" class="st0 st1 st2">openbankIT</text>
</g>
</svg>
